<?xml version="1.0" encoding="UTF-8"?><svg id="uuid-cfa25d1a-bf76-4010-9e44-238965bce16a" xmlns="http://www.w3.org/2000/svg" viewBox="0 0 5888.62 2715.05"><defs><style>.uuid-64fb47b5-d5ae-47c8-8b7b-5c2542d60834{fill:#fff;}.uuid-357478da-f335-4c7a-9615-530deff30a52{fill:#0487d9;}.uuid-5c5f1419-09d6-4eef-aa6f-62836b671f7e{fill:#08a63f;}</style></defs><g><path class="uuid-64fb47b5-d5ae-47c8-8b7b-5c2542d60834" d="M1595.07,799.74s0-.02,0-.04c0,.25,0,.5,.02,.75,0-.24-.02-.47-.02-.71Z"/><path class="uuid-5c5f1419-09d6-4eef-aa6f-62836b671f7e" d="M1711.19,1035.03c-27.94-17.82-53.86-38.54-77.33-61.72-23.26-53.2-36.92-111.54-38.77-172.86,0-.24-.02-.47-.02-.71,0-7.6,6.15-13.76,13.75-13.76,7.12,0,12.97,5.41,13.68,12.35,7.41,88.11,39.24,169.27,88.69,236.7Z"/><path class="uuid-5c5f1419-09d6-4eef-aa6f-62836b671f7e" d="M1445.8,815.05c-79.31-28.47-164.8-43.98-253.91-43.98-21.87,0-43.53,.93-64.93,2.77-23.01,1.97-45.73,4.97-68.11,8.97-33.81,6.04-66.85,14.34-98.94,24.75-9.3,3.01-18.52,6.21-27.65,9.57,44.76-32.91,93.29-60.97,144.84-83.43,2.02-.89,4.05-1.76,6.1-2.62,55.23-23.31,115.87-36.32,179.51-36.61,.97,0,1.95-.02,2.93-.02,1.81,0,3.61,.02,5.41,.04,.97,0,1.94,.03,2.9,.05,4.56,.12,9.08,.35,13.58,.68,.35,.02,.71,.04,1.06,.07,2.44,.19,4.87,.4,7.29,.65,.29,.03,.58,.06,.87,.09,69.29,7.97,126.6,55.28,149.05,119.02Z"/><path class="uuid-5c5f1419-09d6-4eef-aa6f-62836b671f7e" d="M1681.63,640.11c0,44.24-26.6,82.27-64.69,98.95-13.37-72.06-37.02-140.52-69.36-203.78-10.99-21.47-22.97-42.34-35.89-62.55,10.79,20.9,20.64,42.37,29.47,64.35,26.42,65.75,43.81,136.09,50.64,209.5-5.91,1.01-11.98,1.53-18.17,1.53-59.65,0-108-48.35-108-108,0-6.52,.58-12.91,1.69-19.12,3.1-16.93,4.72-34.38,4.72-52.21,0-54.64-15.21-105.72-41.64-149.25,17.35,1.43,34.27,4.41,50.61,8.8,2.34,.62,4.67,1.28,6.99,1.97,85.09,25.12,153.77,88.49,186.14,170.21,4.83,12.26,7.49,25.62,7.49,39.6Z"/><path class="uuid-5c5f1419-09d6-4eef-aa6f-62836b671f7e" d="M1453.15,848.1c-29.92-12.16-60.81-22.44-92.51-30.71-60.75-15.85-124.49-24.28-190.2-24.28-13.97,0-27.84,.38-41.62,1.14-63.11,3.44-124.14,14.67-182.16,32.76-.4,.12-.79,.23-1.18,.36-.98,.3-1.95,.6-2.92,.91-.11,.03-.21,.07-.31,.1-33.64,10.96-62.93,31.56-84.59,58.54-.2,.24-.39,.48-.58,.73-2.82,3.73-4.5,8.39-4.5,13.42,0,2.4,.38,4.71,1.09,6.88,2.89,8.92,11.27,15.37,21.16,15.37,1.54,0,3.04-.16,4.49-.45,16.69-3.01,33.87-4.58,51.43-4.58,68.97,0,132.28,24.25,181.87,64.68,11.29,9.2,21.87,19.25,31.65,30.03l1.47,1.65c8.4,9.22,17.73,17.57,27.86,24.9,29.61,21.41,66.01,34.03,105.35,34.03,99.41,0,180-80.59,180-180,0-4.18-.14-8.33-.43-12.44,236.85,105.58,401.96,343.09,401.96,619.17s-169.89,520.41-412.22,623.64c-34.45,14.57-72.34,22.63-112.1,22.63-72.07,0-137.96-26.47-188.48-70.23-.34-.3-.69-.6-1.04-.91-1.93-1.68-3.83-3.39-5.71-5.12-128.88-116.71-217.07-277.51-240.8-458.6-1.24,1.37-2.5,2.73-3.77,4.08-52.52,55.78-127.04,90.6-209.7,90.6-52.38,0-101.49-13.99-143.81-38.43,24.53,6.81,50.37,10.44,77.07,10.44,122.31,0,226.81-76.24,268.56-183.79-.17-1.16-.35-2.32-.53-3.49-20.27-134.01-75.93-256.41-157.16-357.37-3.7-4.59-7.45-9.14-11.25-13.65-11.43-13.54-23.33-26.68-35.68-39.38-.45-.47-.9-.93-1.36-1.39-.54-.54-1.1-1.08-1.66-1.6-.05-.05-.1-.1-.15-.14-.55-.51-1.1-1.01-1.67-1.5-.47-.41-.95-.82-1.44-1.22-.25-.21-.51-.42-.78-.63-.48-.39-.97-.77-1.46-1.14-3.79-2.9-7.88-5.42-12.21-7.52-9.48-4.61-20.14-7.19-31.39-7.19-22.99,0-43.46,10.77-56.64,27.55-.36,.45-.71,.91-1.05,1.37-5.51,7.16-10.88,14.42-16.12,21.78-19.43,27.27-37.07,55.89-52.77,85.69-52.25,99.16-82.98,211.42-85.97,330.57-.17,6.4-.25,12.82-.25,19.25,0,18.13,.64,36.12,1.9,53.93,14.91,210.24,116.31,396.59,268.82,523.68,130.3,108.57,297.91,173.89,480.78,173.89,100.72,0,196.81-19.81,284.58-55.75,273.94-112.17,466.92-381.43,466.92-695.75s-193.86-584.8-468.79-696.51Zm-818.84,352.23c35.29,0,63.9,28.61,63.9,63.9s-28.61,63.9-63.9,63.9-63.9-28.61-63.9-63.9,28.61-63.9,63.9-63.9Z"/><path class="uuid-357478da-f335-4c7a-9615-530deff30a52" d="M1860.09,1544.61c0-5.47-.07-10.93-.18-16.37-10.87,268.02-177.41,495.93-411.65,595.71-34.45,14.57-72.34,22.63-112.1,22.63-72.07,0-137.96-26.47-188.48-70.23-.34-.3-.69-.6-1.04-.91-1.93-1.68-3.83-3.39-5.71-5.12-128.88-116.71-217.07-277.51-240.8-458.6-1.24,1.37-2.5,2.73-3.77,4.08-52.52,55.78-127.04,90.6-209.7,90.6-52.38,0-101.49-13.99-143.81-38.43,24.53,6.81,50.37,10.44,77.07,10.44,122.31,0,226.81-76.24,268.56-183.79-.17-1.16-.35-2.32-.53-3.49-20.27-134.01-75.93-256.41-157.16-357.37-3.7-4.59-7.45-9.14-11.25-13.65-11.43-13.54-23.33-26.68-35.68-39.38-.45-.47-.9-.93-1.36-1.39-.54-.54-1.1-1.08-1.66-1.6-.05-.05-.1-.1-.15-.14-.55-.51-1.1-1.01-1.67-1.5-.47-.41-.95-.82-1.44-1.22-.25-.21-.51-.42-.78-.63-.48-.39-.97-.77-1.46-1.14-3.79-2.9-7.88-5.42-12.21-7.52-9.48-4.61-20.14-7.19-31.39-7.19-22.99,0-43.46,10.77-56.64,27.55-.36,.45-.71,.91-1.05,1.37-5.51,7.16-10.88,14.42-16.12,21.78-19.43,27.27-37.07,55.89-52.77,85.69-52.25,99.16-82.98,211.42-85.97,330.57-.17,6.4-.25,12.82-.25,19.25,0,18.13,.64,36.12,1.9,53.93,14.91,210.24,116.31,396.59,268.82,523.68,130.3,108.57,297.91,173.89,480.78,173.89,74.09,0,145.67-10.73,213.29-30.71,280.04-119.36,476.36-397.15,476.36-720.79Zm-1225.78-344.28c35.29,0,63.9,28.61,63.9,63.9s-28.61,63.9-63.9,63.9-63.9-28.61-63.9-63.9,28.61-63.9,63.9-63.9Z"/></g><g><path class="uuid-357478da-f335-4c7a-9615-530deff30a52" d="M2163.72,1486.58c-21.54,0-32.31-11.31-32.31-33.93v-336.82c0-22.07,10.5-33.12,31.5-33.12s32.31,11.04,32.31,33.12v38.77c11.84-23.69,28.27-41.86,49.27-54.52,21-12.64,45.5-18.98,73.5-18.98,61.39,0,100.69,26.66,117.93,79.96,11.84-24.76,29.34-44.28,52.5-58.56,23.15-14.26,49.8-21.4,79.96-21.4,87.23,0,130.85,51.69,130.85,155.08v216.47c0,22.62-11.04,33.93-33.12,33.93s-32.31-11.31-32.31-33.93v-213.24c0-36.07-6.34-62.6-18.98-79.56-12.66-16.96-33.52-25.44-62.6-25.44-31.78,0-57.08,11.31-75.93,33.92-18.86,22.62-28.27,52.78-28.27,90.46v193.85c0,22.62-11.04,33.93-33.12,33.93s-32.31-11.31-32.31-33.93v-213.24c0-36.07-6.34-62.6-18.98-79.56-12.66-16.96-33.52-25.44-62.6-25.44-32.31,0-57.75,11.31-76.33,33.92-18.58,22.62-27.87,52.78-27.87,90.46v193.85c0,22.62-11.04,33.93-33.12,33.93Z"/><path class="uuid-357478da-f335-4c7a-9615-530deff30a52" d="M2853.5,993.88c-28.55,0-42.81-13.45-42.81-40.39s14.26-39.58,42.81-39.58,42.81,13.2,42.81,39.58-14.27,40.39-42.81,40.39Zm0,491.09c-21.54,0-32.31-11.84-32.31-35.54v-330.35c0-23.15,10.77-34.73,32.31-34.73s33.12,11.59,33.12,34.73v330.35c0,23.7-11.04,35.54-33.12,35.54Z"/><path class="uuid-357478da-f335-4c7a-9615-530deff30a52" d="M3050.58,1486.58c-22.09,0-33.12-11.57-33.12-34.73v-506.44c0-22.62,11.31-33.93,33.92-33.93h191.43c61.39,0,108.36,14.82,140.95,44.42,32.57,29.62,48.87,71.89,48.87,126.81s-16.29,96.52-48.87,126.41c-32.59,29.88-79.56,44.83-140.95,44.83h-159.12v197.89c0,23.16-11.04,34.73-33.12,34.73Zm33.12-288.35h151.04c88.31,0,132.47-38.49,132.47-115.5s-44.16-116.31-132.47-116.31h-151.04v231.82Z"/><path class="uuid-357478da-f335-4c7a-9615-530deff30a52" d="M3678.99,1488.2c-61.93,0-110.94-18.17-147-54.52-36.08-36.35-54.12-85.74-54.12-148.22,0-40.39,8.08-76.05,24.23-107.02,16.15-30.96,38.37-54.92,66.64-71.89,28.27-16.96,60.98-25.44,98.14-25.44,53.31,0,95.03,17.1,125.2,51.29,30.15,34.2,45.23,81.18,45.23,140.95,0,16.7-9.43,25.04-28.27,25.04h-267.35c2.15,44.7,15.07,78.75,38.77,102.18,23.69,23.42,56.54,35.13,98.54,35.13,17.77,0,35.8-2.28,54.12-6.86,18.3-4.57,36.07-12.79,53.31-24.64,12.38-8.08,22.74-9.69,31.1-4.85,8.34,4.85,12.65,12.26,12.92,22.21,.26,9.97-5.25,18.72-16.56,26.25-17.77,12.92-38.91,22.89-63.41,29.88-24.51,6.99-48.34,10.5-71.48,10.5Zm-10.5-358.62c-37.16,0-66.51,11.59-88.04,34.73-21.54,23.16-34.2,53.59-37.96,91.27h238.28c-1.61-39.84-11.99-70.8-31.1-92.89-19.12-22.07-46.18-33.12-81.18-33.12Z"/><path class="uuid-357478da-f335-4c7a-9615-530deff30a52" d="M4064.27,1488.2c-24.23,0-48.6-3.11-73.1-9.29-24.51-6.18-47.25-16.28-68.25-30.29-9.69-5.92-14.41-13.59-14.14-23.02,.26-9.42,3.9-16.82,10.9-22.21,6.99-5.38,15.88-5.38,26.65,0,21,12.92,41.32,21.95,60.98,27.06,19.65,5.12,39.17,7.67,58.56,7.67,30.69,0,53.84-5.65,69.46-16.96,15.61-11.31,23.42-26.65,23.42-46.04,0-15.07-5.12-27.06-15.35-35.94-10.24-8.89-26.39-15.75-48.46-20.6l-73.5-16.16c-66.77-14.54-100.16-48.99-100.16-103.39,0-35.54,14.14-64.07,42.41-85.62,28.27-21.53,65.29-32.31,111.06-32.31,23.15,0,45.5,3.11,67.04,9.29,21.53,6.2,40.92,16.03,58.16,29.48,9.15,6.46,13.19,14.27,12.12,23.42-1.09,9.16-5.25,16.29-12.52,21.4-7.27,5.13-16.03,4.44-26.25-2.02-16.16-10.77-32.59-18.7-49.27-23.83-16.7-5.11-33.12-7.67-49.27-7.67-30.16,0-53.04,5.93-68.66,17.77-15.63,11.85-23.42,27.46-23.42,46.85,0,30.16,19.92,49.55,59.77,58.16l73.5,15.35c34.45,7.55,60.58,19.53,78.35,35.94,17.77,16.43,26.65,38.64,26.65,66.64,0,36.08-14.27,64.49-42.81,85.21-28.55,20.74-66.51,31.1-113.89,31.1Z"/><path class="uuid-357478da-f335-4c7a-9615-530deff30a52" d="M4486.69,1488.2c-39.31,0-73.24-8.48-101.77-25.44-28.55-16.96-50.48-40.92-65.83-71.89-15.35-30.96-23.02-67.17-23.02-108.64,0-62.46,16.96-111.59,50.89-147.41,33.92-35.8,80.49-53.71,139.73-53.71,19.39,0,39.58,3.11,60.58,9.29,21,6.2,40.11,16.29,57.35,30.29,9.15,6.46,13.05,14.54,11.71,24.23-1.35,9.69-5.93,16.96-13.73,21.81-7.81,4.85-16.83,3.77-27.06-3.23-14.54-10.77-28.95-18.3-43.21-22.62-14.27-4.3-28.14-6.46-41.6-6.46-40.93,0-72.43,12.8-94.5,38.37-22.09,25.58-33.12,62.33-33.12,110.25s11.03,83.88,33.12,111.06c22.07,27.2,53.57,40.79,94.5,40.79,13.45,0,27.32-2.14,41.6-6.46,14.26-4.3,28.67-11.84,43.21-22.62,10.22-6.99,19.11-7.94,26.65-2.83,7.54,5.13,11.71,12.52,12.52,22.21,.81,9.69-3.11,17.5-11.71,23.42-17.24,14.01-36.08,24.11-56.54,30.29-20.47,6.18-40.39,9.29-59.77,9.29Z"/><path class="uuid-357478da-f335-4c7a-9615-530deff30a52" d="M4814.62,1488.2c-26.93,0-51.02-5.25-72.29-15.75-21.28-10.5-38.1-24.9-50.48-43.21-12.39-18.3-18.58-38.77-18.58-61.39,0-28.54,7.4-51.15,22.21-67.85,14.81-16.68,39.3-28.67,73.5-35.94,34.19-7.27,80.9-10.9,140.14-10.9h25.85v-25.04c0-33.38-6.87-57.47-20.6-72.29-13.73-14.8-35.68-22.21-65.83-22.21-18.85,0-37.84,2.42-56.94,7.27-19.12,4.85-38.91,12.66-59.37,23.42-9.16,4.85-16.83,5.79-23.02,2.83-6.2-2.95-10.5-7.8-12.92-14.54-2.42-6.73-2.42-13.73,0-21,2.42-7.27,7.67-12.78,15.75-16.56,23.15-11.84,46.44-20.46,69.87-25.85,23.42-5.38,45.64-8.08,66.64-8.08,50.61,0,88.17,12.39,112.68,37.15,24.5,24.77,36.75,63.28,36.75,115.5v218.89c0,22.62-9.97,33.93-29.88,33.93-21,0-31.5-11.31-31.5-33.93v-39.58c-10.24,23.16-25.99,41.47-47.25,54.92-21.28,13.45-46.18,20.19-74.71,20.19Zm10.5-49.27c32.31,0,58.68-11.17,79.16-33.52,20.46-22.34,30.69-50.75,30.69-85.21v-24.23h-25.04c-43.62,0-77.95,2.02-102.98,6.06-25.04,4.04-42.54,11.04-52.5,21-9.97,9.97-14.94,23.56-14.94,40.79,0,22.09,7.67,40.12,23.02,54.12,15.35,14.01,36.21,21,62.6,21Z"/><path class="uuid-357478da-f335-4c7a-9615-530deff30a52" d="M5282.29,1488.2c-38.24,0-71.36-8.34-99.35-25.04-28.01-16.68-49.67-40.25-65.02-70.68-15.35-30.41-23.02-66.36-23.02-107.83s7.67-77.4,23.02-107.83c15.35-30.42,37.02-53.98,65.02-70.68,27.99-16.68,61.11-25.04,99.35-25.04s70.68,8.35,98.95,25.04c28.27,16.7,50.08,40.26,65.42,70.68,15.35,30.43,23.02,66.37,23.02,107.83s-7.67,77.41-23.02,107.83c-15.35,30.43-37.15,53.99-65.42,70.68-28.27,16.7-61.26,25.04-98.95,25.04Zm0-52.5c36.61,0,65.96-13.05,88.04-39.17,22.07-26.11,33.12-63.41,33.12-111.87s-11.04-86.43-33.12-112.27c-22.09-25.85-51.43-38.77-88.04-38.77s-66.64,12.92-88.44,38.77c-21.81,25.85-32.71,63.28-32.71,112.27s10.9,85.76,32.71,111.87c21.81,26.12,51.29,39.17,88.44,39.17Z"/></g><g><path class="uuid-5c5f1419-09d6-4eef-aa6f-62836b671f7e" d="M2949.66,2039.85c-9.38,0-14.07-4.92-14.07-14.75v-205.18h-77.2c-8.7,0-13.04-4.12-13.04-12.35s4.34-12.01,13.04-12.01h182.87c8.69,0,13.04,4,13.04,12.01s-4.35,12.35-13.04,12.35h-77.2v205.18c0,9.84-4.8,14.75-14.41,14.75Z"/><path class="uuid-5c5f1419-09d6-4eef-aa6f-62836b671f7e" d="M3178.16,2040.54c-31.8,0-55.93-8.41-72.4-25.22-16.47-16.81-24.7-41.34-24.7-73.6v-134.15c0-9.61,4.69-14.41,14.07-14.41s14.07,4.8,14.07,14.41v132.78c0,50.09,22.99,75.14,68.96,75.14s68.28-25.05,68.28-75.14v-132.78c0-9.61,4.8-14.41,14.41-14.41s13.72,4.8,13.72,14.41v134.15c0,32.25-8.18,56.78-24.53,73.6-16.36,16.81-40.31,25.22-71.88,25.22Z"/><path class="uuid-5c5f1419-09d6-4eef-aa6f-62836b671f7e" d="M3436.17,2039.85c-10.07,0-15.1-5.15-15.1-15.44v-213.41c0-10.29,5.15-15.44,15.44-15.44h124.55c8,0,12.01,3.89,12.01,11.66s-4,12.01-12.01,12.01h-111.85v84.4h104.65c8.23,0,12.35,3.89,12.35,11.67s-4.12,12.01-12.35,12.01h-104.65v97.1c0,10.29-4.35,15.44-13.04,15.44Z"/><path class="uuid-5c5f1419-09d6-4eef-aa6f-62836b671f7e" d="M3704.48,2040.54c-31.8,0-55.93-8.41-72.4-25.22-16.47-16.81-24.7-41.34-24.7-73.6v-134.15c0-9.61,4.69-14.41,14.07-14.41s14.07,4.8,14.07,14.41v132.78c0,50.09,22.99,75.14,68.96,75.14s68.28-25.05,68.28-75.14v-132.78c0-9.61,4.8-14.41,14.41-14.41s13.72,4.8,13.72,14.41v134.15c0,32.25-8.18,56.78-24.53,73.6-16.36,16.81-40.31,25.22-71.88,25.22Z"/><path class="uuid-5c5f1419-09d6-4eef-aa6f-62836b671f7e" d="M3932.29,2039.85c-9.38,0-14.07-4.92-14.07-14.75v-205.18h-77.2c-8.7,0-13.04-4.12-13.04-12.35s4.34-12.01,13.04-12.01h182.87c8.69,0,13.04,4,13.04,12.01s-4.35,12.35-13.04,12.35h-77.2v205.18c0,9.84-4.8,14.75-14.41,14.75Z"/><path class="uuid-5c5f1419-09d6-4eef-aa6f-62836b671f7e" d="M4160.8,2040.54c-31.8,0-55.93-8.41-72.39-25.22-16.47-16.81-24.7-41.34-24.7-73.6v-134.15c0-9.61,4.69-14.41,14.07-14.41s14.07,4.8,14.07,14.41v132.78c0,50.09,22.99,75.14,68.96,75.14s68.28-25.05,68.28-75.14v-132.78c0-9.61,4.8-14.41,14.41-14.41s13.72,4.8,13.72,14.41v134.15c0,32.25-8.18,56.78-24.53,73.6-16.36,16.81-40.31,25.22-71.88,25.22Z"/><path class="uuid-5c5f1419-09d6-4eef-aa6f-62836b671f7e" d="M4329.26,2039.85c-9.38,0-14.07-4.92-14.07-14.75v-215.13c0-9.61,4.8-14.41,14.41-14.41h81.32c26.07,0,46.03,6.06,59.87,18.18,13.84,12.13,20.76,29.39,20.76,51.81,0,17.84-4.86,32.48-14.58,43.92-9.72,11.44-23.5,18.87-41.34,22.3,10.52,3.66,19.56,12.58,27.1,26.76l32.94,61.42c2.51,4.8,2.97,9.32,1.37,13.55-1.6,4.23-5.27,6.35-10.98,6.35-3.89,0-7.09-.86-9.61-2.57-2.52-1.72-4.69-4.4-6.52-8.06l-37.4-69.31c-5.27-9.83-11.32-16.41-18.18-19.73-6.86-3.31-15.9-4.97-27.11-4.97h-43.92v89.89c0,9.84-4.69,14.75-14.07,14.75Zm14.07-126.95h63.47c37.97,0,56.96-15.78,56.96-47.35s-18.99-46.66-56.96-46.66h-63.47v94.01Z"/><path class="uuid-5c5f1419-09d6-4eef-aa6f-62836b671f7e" d="M4644.57,2040.54c-22.42,0-41.92-5.09-58.5-15.27-16.59-10.17-29.39-24.53-38.43-43.06-9.04-18.53-13.55-40.49-13.55-65.88s4.46-47.35,13.38-65.88c8.92-18.53,21.67-32.82,38.26-42.89,16.58-10.06,36.2-15.1,58.84-15.1s42.6,5.03,59.18,15.1c16.58,10.07,29.39,24.31,38.43,42.72,9.03,18.42,13.55,40.32,13.55,65.7s-4.58,47.41-13.72,66.05c-9.15,18.65-22.02,33.06-38.6,43.23-16.59,10.18-36.2,15.27-58.84,15.27Zm0-25.05c25.85,0,45.86-8.69,60.04-26.08,14.18-17.38,21.27-41.74,21.27-73.08s-7.09-55.64-21.27-72.91c-14.19-17.27-34.2-25.9-60.04-25.9s-45.18,8.64-59.36,25.9c-14.18,17.27-21.27,41.58-21.27,72.91s7.09,55.41,21.27,72.91c14.18,17.5,33.97,26.25,59.36,26.25Z"/></g></svg>