<?xml version="1.0" encoding="UTF-8"?><svg id="Capa_1" xmlns="http://www.w3.org/2000/svg" viewBox="0 0 159.75 27"><defs><style>.cls-1{fill:#2784c6;}</style></defs><path class="cls-1" d="M1.55,26.92c-1.03,0-1.55-.53-1.55-1.59V9.57c0-1.03,.5-1.55,1.51-1.55s1.55,.52,1.55,1.55v1.82c.57-1.11,1.35-1.96,2.36-2.55,1-.59,2.18-.89,3.52-.89,2.94,0,4.82,1.25,5.64,3.74,.57-1.16,1.4-2.07,2.51-2.74,1.11-.67,2.38-1,3.83-1,4.17,0,6.26,2.42,6.26,7.26v10.13c0,1.06-.53,1.59-1.58,1.59s-1.55-.53-1.55-1.59V15.35c0-1.69-.3-2.93-.91-3.72-.61-.79-1.6-1.19-3-1.19-1.52,0-2.73,.53-3.63,1.59-.9,1.06-1.35,2.47-1.35,4.24v9.08c0,1.06-.53,1.59-1.58,1.59s-1.55-.53-1.55-1.59V15.35c0-1.69-.3-2.93-.91-3.72-.61-.79-1.6-1.19-3-1.19-1.55,0-2.76,.53-3.65,1.59-.89,1.06-1.33,2.47-1.33,4.24v9.08c0,1.06-.53,1.59-1.58,1.59Z"/><path class="cls-1" d="M34.55,3.86c-1.37,0-2.05-.63-2.05-1.89s.68-1.85,2.05-1.85,2.05,.62,2.05,1.85-.68,1.89-2.05,1.89Zm0,22.99c-1.03,0-1.55-.55-1.55-1.66V9.72c0-1.08,.52-1.63,1.55-1.63s1.58,.54,1.58,1.63v15.47c0,1.11-.53,1.66-1.58,1.66Z"/><path class="cls-1" d="M43.98,26.92c-1.06,0-1.58-.54-1.58-1.63V1.59c0-1.06,.54-1.59,1.62-1.59h9.16c2.94,0,5.19,.69,6.74,2.08,1.56,1.39,2.34,3.37,2.34,5.94s-.78,4.52-2.34,5.92c-1.56,1.4-3.81,2.1-6.74,2.1h-7.61v9.26c0,1.08-.53,1.63-1.58,1.63Zm1.58-13.5h7.23c4.23,0,6.34-1.8,6.34-5.41s-2.11-5.45-6.34-5.45h-7.23V13.42Z"/><path class="cls-1" d="M74.06,27c-2.96,0-5.31-.85-7.03-2.55-1.73-1.7-2.59-4.01-2.59-6.94,0-1.89,.39-3.56,1.16-5.01,.77-1.45,1.84-2.57,3.19-3.37,1.35-.79,2.92-1.19,4.7-1.19,2.55,0,4.55,.8,5.99,2.4,1.44,1.6,2.16,3.8,2.16,6.6,0,.78-.45,1.17-1.35,1.17h-12.79c.1,2.09,.72,3.69,1.86,4.78,1.13,1.1,2.71,1.64,4.72,1.64,.85,0,1.71-.11,2.59-.32,.88-.21,1.73-.6,2.55-1.15,.59-.38,1.09-.45,1.49-.23,.4,.23,.61,.57,.62,1.04,.01,.47-.25,.88-.79,1.23-.85,.6-1.86,1.07-3.03,1.4-1.17,.33-2.31,.49-3.42,.49Zm-.5-16.79c-1.78,0-3.18,.54-4.21,1.63-1.03,1.08-1.64,2.51-1.82,4.27h11.4c-.08-1.87-.57-3.31-1.49-4.35-.91-1.03-2.21-1.55-3.88-1.55Z"/><path class="cls-1" d="M92.49,27c-1.16,0-2.33-.15-3.5-.43-1.17-.29-2.26-.76-3.27-1.42-.46-.28-.69-.64-.68-1.08,.01-.44,.19-.79,.52-1.04,.33-.25,.76-.25,1.28,0,1,.61,1.98,1.03,2.92,1.27,.94,.24,1.87,.36,2.8,.36,1.47,0,2.58-.26,3.32-.79,.75-.53,1.12-1.25,1.12-2.16,0-.71-.25-1.27-.73-1.68-.49-.42-1.26-.74-2.32-.96l-3.52-.76c-3.2-.68-4.79-2.29-4.79-4.84,0-1.66,.68-3,2.03-4.01,1.35-1.01,3.12-1.51,5.31-1.51,1.11,0,2.18,.15,3.21,.43,1.03,.29,1.96,.75,2.78,1.38,.44,.3,.63,.67,.58,1.1-.05,.43-.25,.76-.6,1-.35,.24-.77,.21-1.26-.09-.77-.5-1.56-.88-2.36-1.12-.8-.24-1.58-.36-2.36-.36-1.44,0-2.54,.28-3.29,.83-.75,.55-1.12,1.29-1.12,2.19,0,1.41,.95,2.32,2.86,2.72l3.52,.72c1.65,.35,2.9,.91,3.75,1.68,.85,.77,1.28,1.81,1.28,3.12,0,1.69-.68,3.02-2.05,3.99-1.37,.97-3.18,1.46-5.45,1.46Z"/><path class="cls-1" d="M112.71,27c-1.88,0-3.5-.4-4.87-1.19-1.37-.79-2.42-1.92-3.15-3.37-.73-1.45-1.1-3.14-1.1-5.09,0-2.92,.81-5.22,2.44-6.9,1.62-1.68,3.85-2.51,6.69-2.51,.93,0,1.89,.15,2.9,.43,1,.29,1.92,.76,2.74,1.42,.44,.3,.62,.68,.56,1.13-.06,.45-.28,.79-.66,1.02-.37,.23-.81,.18-1.29-.15-.7-.5-1.39-.86-2.07-1.06-.68-.2-1.35-.3-1.99-.3-1.96,0-3.47,.6-4.52,1.8-1.06,1.2-1.58,2.92-1.58,5.16s.53,3.93,1.58,5.2c1.06,1.27,2.56,1.91,4.52,1.91,.64,0,1.31-.1,1.99-.3,.68-.2,1.37-.55,2.07-1.06,.49-.33,.91-.37,1.28-.13,.36,.24,.56,.59,.6,1.04,.04,.45-.15,.82-.56,1.1-.82,.66-1.73,1.13-2.71,1.42-.98,.29-1.93,.43-2.86,.43Z"/><path class="cls-1" d="M128.4,27c-1.29,0-2.44-.25-3.46-.74-1.02-.49-1.82-1.17-2.42-2.02-.59-.86-.89-1.82-.89-2.87,0-1.34,.35-2.39,1.06-3.18,.71-.78,1.88-1.34,3.52-1.68,1.64-.34,3.87-.51,6.71-.51h1.24v-1.17c0-1.56-.33-2.69-.99-3.38-.66-.69-1.71-1.04-3.15-1.04-.9,0-1.81,.11-2.72,.34-.91,.23-1.86,.59-2.84,1.1-.44,.23-.81,.27-1.1,.13-.3-.14-.5-.37-.62-.68-.12-.31-.12-.64,0-.98,.12-.34,.37-.6,.75-.78,1.11-.55,2.22-.96,3.34-1.21,1.12-.25,2.18-.38,3.19-.38,2.42,0,4.22,.58,5.39,1.74,1.17,1.16,1.76,2.96,1.76,5.41v10.25c0,1.06-.48,1.59-1.43,1.59-1,0-1.51-.53-1.51-1.59v-1.85c-.49,1.08-1.24,1.94-2.26,2.57-1.02,.63-2.21,.95-3.58,.95Zm.5-2.31c1.55,0,2.81-.52,3.79-1.57,.98-1.05,1.47-2.38,1.47-3.99v-1.13h-1.2c-2.09,0-3.73,.09-4.93,.28-1.2,.19-2.04,.52-2.51,.98-.48,.47-.72,1.1-.72,1.91,0,1.03,.37,1.88,1.1,2.53,.73,.66,1.73,.98,3,.98Z"/><path class="cls-1" d="M150.78,27c-1.83,0-3.41-.39-4.75-1.17-1.34-.78-2.38-1.88-3.11-3.31-.73-1.42-1.1-3.11-1.1-5.05s.37-3.62,1.1-5.05c.73-1.42,1.77-2.53,3.11-3.31,1.34-.78,2.92-1.17,4.75-1.17s3.38,.39,4.73,1.17c1.35,.78,2.4,1.88,3.13,3.31,.73,1.42,1.1,3.11,1.1,5.05s-.37,3.62-1.1,5.05c-.73,1.42-1.78,2.53-3.13,3.31-1.35,.78-2.93,1.17-4.73,1.17Zm0-2.46c1.75,0,3.16-.61,4.21-1.83,1.06-1.22,1.58-2.97,1.58-5.24s-.53-4.05-1.58-5.26c-1.06-1.21-2.46-1.82-4.21-1.82s-3.19,.6-4.23,1.82c-1.04,1.21-1.57,2.96-1.57,5.26s.52,4.01,1.57,5.24c1.04,1.22,2.45,1.83,4.23,1.83Z"/></svg>