<svg xmlns="http://www.w3.org/2000/svg" viewBox="0 0 318.62 358.43"><defs><style>.a8b10055-a3fa-409c-98e4-add47d3fac27{fill:#aaccec;}.baf6e6c0-254e-42b0-8824-b89bd2285dcc{fill:#fff;}</style></defs><g id="f3b32a1e-8702-4f3f-a27d-c3c6f1127b1c" data-name="Capa 29"><path class="a8b10055-a3fa-409c-98e4-add47d3fac27" d="M0,26.76V329.52a210.75,210.75,0,0,0,106.85,28.91c117,0,211.77-94.82,211.77-211.77A211.06,211.06,0,0,0,259.61,0H26.76A26.76,26.76,0,0,0,0,26.76Z"/><circle class="baf6e6c0-254e-42b0-8824-b89bd2285dcc" cx="118.08" cy="73.09" r="36.38"/><path class="baf6e6c0-254e-42b0-8824-b89bd2285dcc" d="M156.25,220.71h-9.7V136.28a11.07,11.07,0,0,0-11.07-11.06H81.36a11.07,11.07,0,0,0-11.07,11.06V155a11.07,11.07,0,0,0,11.07,11.06h10v54.64h-10a11.07,11.07,0,0,0-11.07,11.06v18.72a11.07,11.07,0,0,0,11.07,11.07h74.89a11.06,11.06,0,0,0,11.06-11.07V231.77A11.06,11.06,0,0,0,156.25,220.71Z"/></g></svg>